# xmcd
#
# Track frame offsets: 
#        150
#        27222
#        44475
#        66377
#        83612
#        101890
#        122387
#        142032
#        158010
#        178165
#
# Disc length: 2650 seconds
#
# Revision: 8
# Processed by: cddbd v1.5.2PL0 Copyright (c) Steve Scherf et al.
# Submitted via: ExactAudioCopyFreeDBPlugin 1.0
#
DISCID=850a580a
DTITLE=Nail, Jimmy - Big River
DYEAR=1995
DGENRE=Pop - 1990s
TTITLE0=Big River
TTITLE1=I Think Of You
TTITLE2=Can't Hold On
TTITLE3=Right To Know
TTITLE4=Love
TTITLE5=What Kind Of Man Am I
TTITLE6=Something That We Had
TTITLE7=What's The Use?
TTITLE8=Hands Of Time
TTITLE9=I Wonder (Will I Ever Love Again)
EXTD=YEAR: 1995
EXTT0=
EXTT1=
EXTT2=
EXTT3=
EXTT4=
EXTT5=
EXTT6=
EXTT7=
EXTT8=
EXTT9=
PLAYORDER=
